<?xml version="1.0" encoding="UTF-8"?>
<svg xmlns="http://www.w3.org/2000/svg" xmlns:xlink="http://www.w3.org/1999/xlink" width="199pt" height="71pt" viewBox="0 0 199 71">
<defs>
<g>
<g id="glyph-0-0">
<path d="M 2.0625 -3.109375 L 2.0625 -1.171875 C 2.0625 -0.753906 2.101562 -0.492188 2.1875 -0.390625 C 2.3125 -0.253906 2.5 -0.1875 2.75 -0.1875 L 3.015625 -0.1875 L 3.015625 0 L 0.171875 0 L 0.171875 -0.1875 L 0.421875 -0.1875 C 0.703125 -0.1875 0.898438 -0.273438 1.015625 -0.453125 C 1.078125 -0.554688 1.109375 -0.796875 1.109375 -1.171875 L 1.109375 -5.453125 C 1.109375 -5.867188 1.066406 -6.128906 0.984375 -6.234375 C 0.859375 -6.378906 0.671875 -6.453125 0.421875 -6.453125 L 0.171875 -6.453125 L 0.171875 -6.625 L 2.59375 -6.625 C 3.195312 -6.625 3.664062 -6.5625 4 -6.4375 C 4.34375 -6.320312 4.628906 -6.117188 4.859375 -5.828125 C 5.097656 -5.535156 5.21875 -5.191406 5.21875 -4.796875 C 5.21875 -4.253906 5.039062 -3.8125 4.6875 -3.46875 C 4.332031 -3.132812 3.828125 -2.96875 3.171875 -2.96875 C 3.015625 -2.96875 2.84375 -2.976562 2.65625 -3 C 2.46875 -3.019531 2.269531 -3.054688 2.0625 -3.109375 Z M 2.0625 -3.390625 C 2.226562 -3.347656 2.378906 -3.316406 2.515625 -3.296875 C 2.648438 -3.285156 2.765625 -3.28125 2.859375 -3.28125 C 3.203125 -3.28125 3.492188 -3.410156 3.734375 -3.671875 C 3.984375 -3.941406 4.109375 -4.285156 4.109375 -4.703125 C 4.109375 -4.984375 4.046875 -5.25 3.921875 -5.5 C 3.804688 -5.75 3.640625 -5.929688 3.421875 -6.046875 C 3.210938 -6.171875 2.972656 -6.234375 2.703125 -6.234375 C 2.535156 -6.234375 2.320312 -6.203125 2.0625 -6.140625 Z M 2.0625 -3.390625 "/>
</g>
<g id="glyph-0-1">
<path d="M 1.859375 -6.953125 L 1.859375 -1.015625 C 1.859375 -0.734375 1.878906 -0.546875 1.921875 -0.453125 C 1.960938 -0.359375 2.023438 -0.285156 2.109375 -0.234375 C 2.191406 -0.191406 2.347656 -0.171875 2.578125 -0.171875 L 2.578125 0 L 0.375 0 L 0.375 -0.171875 C 0.582031 -0.171875 0.722656 -0.191406 0.796875 -0.234375 C 0.878906 -0.273438 0.941406 -0.34375 0.984375 -0.4375 C 1.023438 -0.539062 1.046875 -0.734375 1.046875 -1.015625 L 1.046875 -5.078125 C 1.046875 -5.585938 1.03125 -5.898438 1 -6.015625 C 0.976562 -6.128906 0.941406 -6.207031 0.890625 -6.25 C 0.847656 -6.289062 0.785156 -6.3125 0.703125 -6.3125 C 0.617188 -6.3125 0.507812 -6.285156 0.375 -6.234375 L 0.296875 -6.40625 L 1.640625 -6.953125 Z M 1.859375 -6.953125 "/>
</g>
<g id="glyph-0-2">
<path d="M 2.859375 -0.640625 C 2.398438 -0.285156 2.109375 -0.0820312 1.984375 -0.03125 C 1.804688 0.0507812 1.617188 0.09375 1.421875 0.09375 C 1.109375 0.09375 0.851562 -0.0078125 0.65625 -0.21875 C 0.457031 -0.4375 0.359375 -0.71875 0.359375 -1.0625 C 0.359375 -1.28125 0.40625 -1.46875 0.5 -1.625 C 0.632812 -1.851562 0.867188 -2.0625 1.203125 -2.25 C 1.535156 -2.445312 2.085938 -2.6875 2.859375 -2.96875 L 2.859375 -3.140625 C 2.859375 -3.585938 2.785156 -3.894531 2.640625 -4.0625 C 2.492188 -4.226562 2.285156 -4.3125 2.015625 -4.3125 C 1.816406 -4.3125 1.65625 -4.253906 1.53125 -4.140625 C 1.40625 -4.035156 1.34375 -3.910156 1.34375 -3.765625 L 1.359375 -3.484375 C 1.359375 -3.328125 1.316406 -3.207031 1.234375 -3.125 C 1.160156 -3.050781 1.0625 -3.015625 0.9375 -3.015625 C 0.820312 -3.015625 0.722656 -3.054688 0.640625 -3.140625 C 0.566406 -3.222656 0.53125 -3.335938 0.53125 -3.484375 C 0.53125 -3.765625 0.671875 -4.019531 0.953125 -4.25 C 1.242188 -4.488281 1.648438 -4.609375 2.171875 -4.609375 C 2.566406 -4.609375 2.894531 -4.539062 3.15625 -4.40625 C 3.34375 -4.3125 3.484375 -4.15625 3.578125 -3.9375 C 3.628906 -3.789062 3.65625 -3.503906 3.65625 -3.078125 L 3.65625 -1.5625 C 3.65625 -1.132812 3.664062 -0.867188 3.6875 -0.765625 C 3.707031 -0.671875 3.734375 -0.609375 3.765625 -0.578125 C 3.804688 -0.546875 3.851562 -0.53125 3.90625 -0.53125 C 3.957031 -0.53125 4 -0.539062 4.03125 -0.5625 C 4.101562 -0.601562 4.238281 -0.722656 4.4375 -0.921875 L 4.4375 -0.640625 C 4.070312 -0.148438 3.722656 0.09375 3.390625 0.09375 C 3.222656 0.09375 3.09375 0.0351562 3 -0.078125 C 2.90625 -0.191406 2.859375 -0.378906 2.859375 -0.640625 Z M 2.859375 -0.96875 L 2.859375 -2.671875 C 2.359375 -2.472656 2.039062 -2.332031 1.90625 -2.25 C 1.644531 -2.113281 1.457031 -1.960938 1.34375 -1.796875 C 1.238281 -1.640625 1.1875 -1.472656 1.1875 -1.296875 C 1.1875 -1.054688 1.253906 -0.859375 1.390625 -0.703125 C 1.535156 -0.546875 1.695312 -0.46875 1.875 -0.46875 C 2.125 -0.46875 2.453125 -0.632812 2.859375 -0.96875 Z M 2.859375 -0.96875 "/>
</g>
<g id="glyph-0-3">
<path d="M 1.625 -3.65625 C 2.144531 -4.289062 2.644531 -4.609375 3.125 -4.609375 C 3.375 -4.609375 3.582031 -4.546875 3.75 -4.421875 C 3.925781 -4.304688 4.066406 -4.109375 4.171875 -3.828125 C 4.242188 -3.628906 4.28125 -3.328125 4.28125 -2.921875 L 4.28125 -1.015625 C 4.28125 -0.734375 4.304688 -0.539062 4.359375 -0.4375 C 4.390625 -0.351562 4.441406 -0.285156 4.515625 -0.234375 C 4.597656 -0.191406 4.75 -0.171875 4.96875 -0.171875 L 4.96875 0 L 2.75 0 L 2.75 -0.171875 L 2.84375 -0.171875 C 3.050781 -0.171875 3.195312 -0.203125 3.28125 -0.265625 C 3.363281 -0.328125 3.421875 -0.421875 3.453125 -0.546875 C 3.472656 -0.597656 3.484375 -0.753906 3.484375 -1.015625 L 3.484375 -2.84375 C 3.484375 -3.25 3.425781 -3.546875 3.3125 -3.734375 C 3.207031 -3.921875 3.03125 -4.015625 2.78125 -4.015625 C 2.394531 -4.015625 2.007812 -3.800781 1.625 -3.375 L 1.625 -1.015625 C 1.625 -0.710938 1.640625 -0.523438 1.671875 -0.453125 C 1.722656 -0.359375 1.785156 -0.285156 1.859375 -0.234375 C 1.941406 -0.191406 2.101562 -0.171875 2.34375 -0.171875 L 2.34375 0 L 0.125 0 L 0.125 -0.171875 L 0.234375 -0.171875 C 0.460938 -0.171875 0.613281 -0.226562 0.6875 -0.34375 C 0.769531 -0.457031 0.8125 -0.679688 0.8125 -1.015625 L 0.8125 -2.671875 C 0.8125 -3.210938 0.796875 -3.539062 0.765625 -3.65625 C 0.742188 -3.769531 0.707031 -3.847656 0.65625 -3.890625 C 0.613281 -3.941406 0.546875 -3.96875 0.453125 -3.96875 C 0.367188 -3.96875 0.257812 -3.941406 0.125 -3.890625 L 0.0625 -4.0625 L 1.40625 -4.609375 L 1.625 -4.609375 Z M 1.625 -3.65625 "/>
</g>
<g id="glyph-0-4">
<path d="M 0.40625 -2.609375 L 2.9375 -2.609375 L 2.9375 -1.875 L 0.40625 -1.875 Z M 0.40625 -2.609375 "/>
</g>
<g id="glyph-0-5">
<path d="M 1.546875 -3.703125 C 1.972656 -4.304688 2.441406 -4.609375 2.953125 -4.609375 C 3.410156 -4.609375 3.8125 -4.410156 4.15625 -4.015625 C 4.5 -3.628906 4.671875 -3.09375 4.671875 -2.40625 C 4.671875 -1.613281 4.40625 -0.972656 3.875 -0.484375 C 3.414062 -0.0664062 2.910156 0.140625 2.359375 0.140625 C 2.097656 0.140625 1.832031 0.09375 1.5625 0 C 1.289062 -0.09375 1.015625 -0.238281 0.734375 -0.4375 L 0.734375 -5.078125 C 0.734375 -5.578125 0.71875 -5.882812 0.6875 -6 C 0.664062 -6.125 0.628906 -6.207031 0.578125 -6.25 C 0.523438 -6.289062 0.460938 -6.3125 0.390625 -6.3125 C 0.296875 -6.3125 0.179688 -6.285156 0.046875 -6.234375 L -0.03125 -6.40625 L 1.328125 -6.953125 L 1.546875 -6.953125 Z M 1.546875 -3.390625 L 1.546875 -0.71875 C 1.710938 -0.550781 1.882812 -0.425781 2.0625 -0.34375 C 2.238281 -0.257812 2.421875 -0.21875 2.609375 -0.21875 C 2.898438 -0.21875 3.175781 -0.378906 3.4375 -0.703125 C 3.695312 -1.035156 3.828125 -1.507812 3.828125 -2.125 C 3.828125 -2.707031 3.695312 -3.148438 3.4375 -3.453125 C 3.175781 -3.765625 2.882812 -3.921875 2.5625 -3.921875 C 2.382812 -3.921875 2.210938 -3.875 2.046875 -3.78125 C 1.910156 -3.71875 1.742188 -3.585938 1.546875 -3.390625 Z M 1.546875 -3.390625 "/>
</g>
<g id="glyph-0-6">
<path d="M 3.21875 -4.609375 L 3.21875 -3.078125 L 3.046875 -3.078125 C 2.921875 -3.566406 2.757812 -3.894531 2.5625 -4.0625 C 2.375 -4.238281 2.128906 -4.328125 1.828125 -4.328125 C 1.597656 -4.328125 1.410156 -4.265625 1.265625 -4.140625 C 1.128906 -4.023438 1.0625 -3.890625 1.0625 -3.734375 C 1.0625 -3.554688 1.113281 -3.398438 1.21875 -3.265625 C 1.320312 -3.140625 1.53125 -3 1.84375 -2.84375 L 2.5625 -2.5 C 3.21875 -2.175781 3.546875 -1.75 3.546875 -1.21875 C 3.546875 -0.8125 3.390625 -0.484375 3.078125 -0.234375 C 2.773438 0.015625 2.429688 0.140625 2.046875 0.140625 C 1.773438 0.140625 1.460938 0.0859375 1.109375 -0.015625 C 1.003906 -0.046875 0.914062 -0.0625 0.84375 -0.0625 C 0.769531 -0.0625 0.710938 -0.0195312 0.671875 0.0625 L 0.515625 0.0625 L 0.515625 -1.53125 L 0.671875 -1.53125 C 0.765625 -1.070312 0.9375 -0.726562 1.1875 -0.5 C 1.445312 -0.269531 1.738281 -0.15625 2.0625 -0.15625 C 2.289062 -0.15625 2.472656 -0.21875 2.609375 -0.34375 C 2.753906 -0.476562 2.828125 -0.640625 2.828125 -0.828125 C 2.828125 -1.046875 2.742188 -1.234375 2.578125 -1.390625 C 2.421875 -1.546875 2.109375 -1.738281 1.640625 -1.96875 C 1.171875 -2.207031 0.859375 -2.421875 0.703125 -2.609375 C 0.554688 -2.796875 0.484375 -3.03125 0.484375 -3.3125 C 0.484375 -3.6875 0.609375 -3.992188 0.859375 -4.234375 C 1.117188 -4.484375 1.445312 -4.609375 1.84375 -4.609375 C 2.019531 -4.609375 2.238281 -4.570312 2.5 -4.5 C 2.664062 -4.445312 2.773438 -4.421875 2.828125 -4.421875 C 2.878906 -4.421875 2.921875 -4.429688 2.953125 -4.453125 C 2.984375 -4.484375 3.015625 -4.535156 3.046875 -4.609375 Z M 3.21875 -4.609375 "/>
</g>
<g id="glyph-0-7">
<path d="M 1.0625 -2.796875 C 1.0625 -2.128906 1.222656 -1.609375 1.546875 -1.234375 C 1.878906 -0.847656 2.265625 -0.65625 2.703125 -0.65625 C 2.992188 -0.65625 3.25 -0.734375 3.46875 -0.890625 C 3.6875 -1.054688 3.867188 -1.335938 4.015625 -1.734375 L 4.171875 -1.640625 C 4.097656 -1.191406 3.894531 -0.78125 3.5625 -0.40625 C 3.238281 -0.0390625 2.828125 0.140625 2.328125 0.140625 C 1.785156 0.140625 1.320312 -0.0664062 0.9375 -0.484375 C 0.5625 -0.910156 0.375 -1.476562 0.375 -2.1875 C 0.375 -2.945312 0.566406 -3.539062 0.953125 -3.96875 C 1.347656 -4.394531 1.84375 -4.609375 2.4375 -4.609375 C 2.945312 -4.609375 3.363281 -4.441406 3.6875 -4.109375 C 4.007812 -3.785156 4.171875 -3.347656 4.171875 -2.796875 Z M 1.0625 -3.078125 L 3.140625 -3.078125 C 3.128906 -3.359375 3.097656 -3.5625 3.046875 -3.6875 C 2.960938 -3.863281 2.835938 -4.003906 2.671875 -4.109375 C 2.515625 -4.210938 2.347656 -4.265625 2.171875 -4.265625 C 1.898438 -4.265625 1.65625 -4.160156 1.4375 -3.953125 C 1.226562 -3.742188 1.101562 -3.453125 1.0625 -3.078125 Z M 1.0625 -3.078125 "/>
</g>
<g id="glyph-0-8">
<path d="M 3.484375 -0.5 C 3.265625 -0.269531 3.050781 -0.101562 2.84375 0 C 2.632812 0.09375 2.410156 0.140625 2.171875 0.140625 C 1.679688 0.140625 1.25 -0.0625 0.875 -0.46875 C 0.507812 -0.882812 0.328125 -1.410156 0.328125 -2.046875 C 0.328125 -2.691406 0.53125 -3.28125 0.9375 -3.8125 C 1.34375 -4.34375 1.863281 -4.609375 2.5 -4.609375 C 2.894531 -4.609375 3.222656 -4.484375 3.484375 -4.234375 L 3.484375 -5.0625 C 3.484375 -5.570312 3.46875 -5.882812 3.4375 -6 C 3.414062 -6.125 3.378906 -6.207031 3.328125 -6.25 C 3.273438 -6.289062 3.210938 -6.3125 3.140625 -6.3125 C 3.046875 -6.3125 2.929688 -6.285156 2.796875 -6.234375 L 2.734375 -6.40625 L 4.0625 -6.953125 L 4.296875 -6.953125 L 4.296875 -1.78125 C 4.296875 -1.25 4.304688 -0.925781 4.328125 -0.8125 C 4.347656 -0.695312 4.382812 -0.613281 4.4375 -0.5625 C 4.5 -0.519531 4.566406 -0.5 4.640625 -0.5 C 4.722656 -0.5 4.835938 -0.53125 4.984375 -0.59375 L 5.046875 -0.421875 L 3.703125 0.140625 L 3.484375 0.140625 Z M 3.484375 -0.84375 L 3.484375 -3.15625 C 3.460938 -3.375 3.398438 -3.570312 3.296875 -3.75 C 3.203125 -3.9375 3.070312 -4.078125 2.90625 -4.171875 C 2.75 -4.265625 2.59375 -4.3125 2.4375 -4.3125 C 2.15625 -4.3125 1.898438 -4.179688 1.671875 -3.921875 C 1.378906 -3.585938 1.234375 -3.09375 1.234375 -2.4375 C 1.234375 -1.78125 1.375 -1.273438 1.65625 -0.921875 C 1.945312 -0.578125 2.269531 -0.40625 2.625 -0.40625 C 2.914062 -0.40625 3.203125 -0.550781 3.484375 -0.84375 Z M 3.484375 -0.84375 "/>
</g>
<g id="glyph-0-9">
</g>
<g id="glyph-0-10">
<path d="M 2.515625 -4.609375 C 3.191406 -4.609375 3.734375 -4.351562 4.140625 -3.84375 C 4.492188 -3.394531 4.671875 -2.890625 4.671875 -2.328125 C 4.671875 -1.921875 4.570312 -1.507812 4.375 -1.09375 C 4.1875 -0.6875 3.921875 -0.378906 3.578125 -0.171875 C 3.242188 0.0351562 2.867188 0.140625 2.453125 0.140625 C 1.773438 0.140625 1.238281 -0.128906 0.84375 -0.671875 C 0.507812 -1.117188 0.34375 -1.628906 0.34375 -2.203125 C 0.34375 -2.609375 0.441406 -3.015625 0.640625 -3.421875 C 0.847656 -3.828125 1.117188 -4.125 1.453125 -4.3125 C 1.785156 -4.507812 2.140625 -4.609375 2.515625 -4.609375 Z M 2.359375 -4.296875 C 2.179688 -4.296875 2.003906 -4.242188 1.828125 -4.140625 C 1.660156 -4.035156 1.519531 -3.851562 1.40625 -3.59375 C 1.300781 -3.34375 1.25 -3.015625 1.25 -2.609375 C 1.25 -1.953125 1.378906 -1.382812 1.640625 -0.90625 C 1.898438 -0.4375 2.242188 -0.203125 2.671875 -0.203125 C 2.984375 -0.203125 3.238281 -0.332031 3.4375 -0.59375 C 3.644531 -0.863281 3.75 -1.316406 3.75 -1.953125 C 3.75 -2.742188 3.582031 -3.367188 3.25 -3.828125 C 3.007812 -4.140625 2.710938 -4.296875 2.359375 -4.296875 Z M 2.359375 -4.296875 "/>
</g>
<g id="glyph-0-11">
<path d="M 1.625 -4.609375 L 1.625 -3.609375 C 2 -4.273438 2.382812 -4.609375 2.78125 -4.609375 C 2.957031 -4.609375 3.101562 -4.550781 3.21875 -4.4375 C 3.34375 -4.332031 3.40625 -4.207031 3.40625 -4.0625 C 3.40625 -3.9375 3.363281 -3.828125 3.28125 -3.734375 C 3.195312 -3.648438 3.09375 -3.609375 2.96875 -3.609375 C 2.851562 -3.609375 2.722656 -3.664062 2.578125 -3.78125 C 2.441406 -3.894531 2.335938 -3.953125 2.265625 -3.953125 C 2.210938 -3.953125 2.148438 -3.921875 2.078125 -3.859375 C 1.929688 -3.722656 1.78125 -3.5 1.625 -3.1875 L 1.625 -1.046875 C 1.625 -0.796875 1.65625 -0.609375 1.71875 -0.484375 C 1.757812 -0.398438 1.832031 -0.328125 1.9375 -0.265625 C 2.050781 -0.203125 2.207031 -0.171875 2.40625 -0.171875 L 2.40625 0 L 0.109375 0 L 0.109375 -0.171875 C 0.335938 -0.171875 0.507812 -0.207031 0.625 -0.28125 C 0.707031 -0.332031 0.765625 -0.414062 0.796875 -0.53125 C 0.804688 -0.582031 0.8125 -0.738281 0.8125 -1 L 0.8125 -2.75 C 0.8125 -3.269531 0.800781 -3.578125 0.78125 -3.671875 C 0.757812 -3.773438 0.71875 -3.847656 0.65625 -3.890625 C 0.601562 -3.941406 0.535156 -3.96875 0.453125 -3.96875 C 0.347656 -3.96875 0.234375 -3.941406 0.109375 -3.890625 L 0.0625 -4.0625 L 1.421875 -4.609375 Z M 1.625 -4.609375 "/>
</g>
<g id="glyph-0-12">
<path d="M 4.125 -1.703125 C 4 -1.109375 3.757812 -0.648438 3.40625 -0.328125 C 3.0625 -0.015625 2.675781 0.140625 2.25 0.140625 C 1.738281 0.140625 1.289062 -0.0703125 0.90625 -0.5 C 0.53125 -0.925781 0.34375 -1.503906 0.34375 -2.234375 C 0.34375 -2.941406 0.550781 -3.515625 0.96875 -3.953125 C 1.394531 -4.390625 1.898438 -4.609375 2.484375 -4.609375 C 2.921875 -4.609375 3.28125 -4.488281 3.5625 -4.25 C 3.851562 -4.019531 4 -3.78125 4 -3.53125 C 4 -3.40625 3.957031 -3.304688 3.875 -3.234375 C 3.789062 -3.160156 3.679688 -3.125 3.546875 -3.125 C 3.347656 -3.125 3.203125 -3.1875 3.109375 -3.3125 C 3.046875 -3.375 3.003906 -3.5 2.984375 -3.6875 C 2.972656 -3.882812 2.910156 -4.035156 2.796875 -4.140625 C 2.679688 -4.234375 2.523438 -4.28125 2.328125 -4.28125 C 1.992188 -4.28125 1.726562 -4.160156 1.53125 -3.921875 C 1.269531 -3.597656 1.140625 -3.175781 1.140625 -2.65625 C 1.140625 -2.125 1.269531 -1.648438 1.53125 -1.234375 C 1.789062 -0.828125 2.144531 -0.625 2.59375 -0.625 C 2.914062 -0.625 3.203125 -0.734375 3.453125 -0.953125 C 3.640625 -1.097656 3.816406 -1.367188 3.984375 -1.765625 Z M 4.125 -1.703125 "/>
</g>
<g id="glyph-0-13">
<path d="M 1.625 -6.953125 L 1.625 -3.671875 C 1.988281 -4.078125 2.273438 -4.332031 2.484375 -4.4375 C 2.703125 -4.550781 2.914062 -4.609375 3.125 -4.609375 C 3.382812 -4.609375 3.601562 -4.535156 3.78125 -4.390625 C 3.96875 -4.253906 4.101562 -4.035156 4.1875 -3.734375 C 4.25 -3.523438 4.28125 -3.144531 4.28125 -2.59375 L 4.28125 -1.015625 C 4.28125 -0.734375 4.304688 -0.539062 4.359375 -0.4375 C 4.390625 -0.351562 4.441406 -0.285156 4.515625 -0.234375 C 4.597656 -0.191406 4.742188 -0.171875 4.953125 -0.171875 L 4.953125 0 L 2.75 0 L 2.75 -0.171875 L 2.84375 -0.171875 C 3.0625 -0.171875 3.207031 -0.203125 3.28125 -0.265625 C 3.363281 -0.328125 3.421875 -0.421875 3.453125 -0.546875 C 3.460938 -0.597656 3.46875 -0.753906 3.46875 -1.015625 L 3.46875 -2.59375 C 3.46875 -3.082031 3.441406 -3.40625 3.390625 -3.5625 C 3.347656 -3.71875 3.269531 -3.832031 3.15625 -3.90625 C 3.039062 -3.976562 2.90625 -4.015625 2.75 -4.015625 C 2.59375 -4.015625 2.425781 -3.972656 2.25 -3.890625 C 2.082031 -3.804688 1.875 -3.632812 1.625 -3.375 L 1.625 -1.015625 C 1.625 -0.703125 1.640625 -0.507812 1.671875 -0.4375 C 1.710938 -0.363281 1.78125 -0.300781 1.875 -0.25 C 1.96875 -0.195312 2.128906 -0.171875 2.359375 -0.171875 L 2.359375 0 L 0.125 0 L 0.125 -0.171875 C 0.332031 -0.171875 0.492188 -0.203125 0.609375 -0.265625 C 0.671875 -0.296875 0.71875 -0.359375 0.75 -0.453125 C 0.789062 -0.546875 0.8125 -0.734375 0.8125 -1.015625 L 0.8125 -5.0625 C 0.8125 -5.570312 0.800781 -5.882812 0.78125 -6 C 0.757812 -6.125 0.722656 -6.207031 0.671875 -6.25 C 0.617188 -6.289062 0.550781 -6.3125 0.46875 -6.3125 C 0.394531 -6.3125 0.28125 -6.285156 0.125 -6.234375 L 0.0625 -6.40625 L 1.40625 -6.953125 Z M 1.625 -6.953125 "/>
</g>
<g id="glyph-0-14">
<path d="M 1.609375 -5.953125 L 1.609375 -4.484375 L 2.671875 -4.484375 L 2.671875 -4.140625 L 1.609375 -4.140625 L 1.609375 -1.234375 C 1.609375 -0.941406 1.648438 -0.742188 1.734375 -0.640625 C 1.816406 -0.546875 1.925781 -0.5 2.0625 -0.5 C 2.164062 -0.5 2.269531 -0.53125 2.375 -0.59375 C 2.476562 -0.65625 2.554688 -0.753906 2.609375 -0.890625 L 2.796875 -0.890625 C 2.679688 -0.566406 2.519531 -0.320312 2.3125 -0.15625 C 2.101562 0 1.890625 0.078125 1.671875 0.078125 C 1.515625 0.078125 1.363281 0.0351562 1.21875 -0.046875 C 1.082031 -0.128906 0.976562 -0.25 0.90625 -0.40625 C 0.84375 -0.5625 0.8125 -0.800781 0.8125 -1.125 L 0.8125 -4.140625 L 0.09375 -4.140625 L 0.09375 -4.296875 C 0.28125 -4.367188 0.46875 -4.488281 0.65625 -4.65625 C 0.84375 -4.832031 1.007812 -5.035156 1.15625 -5.265625 C 1.226562 -5.390625 1.332031 -5.617188 1.46875 -5.953125 Z M 1.609375 -5.953125 "/>
</g>
<g id="glyph-0-15">
<path d="M 1.453125 -6.953125 C 1.585938 -6.953125 1.703125 -6.90625 1.796875 -6.8125 C 1.898438 -6.71875 1.953125 -6.597656 1.953125 -6.453125 C 1.953125 -6.316406 1.898438 -6.203125 1.796875 -6.109375 C 1.703125 -6.015625 1.585938 -5.96875 1.453125 -5.96875 C 1.316406 -5.96875 1.195312 -6.015625 1.09375 -6.109375 C 1 -6.203125 0.953125 -6.316406 0.953125 -6.453125 C 0.953125 -6.597656 1 -6.71875 1.09375 -6.8125 C 1.195312 -6.90625 1.316406 -6.953125 1.453125 -6.953125 Z M 1.859375 -4.609375 L 1.859375 -1.015625 C 1.859375 -0.734375 1.878906 -0.546875 1.921875 -0.453125 C 1.960938 -0.359375 2.019531 -0.285156 2.09375 -0.234375 C 2.175781 -0.191406 2.328125 -0.171875 2.546875 -0.171875 L 2.546875 0 L 0.359375 0 L 0.359375 -0.171875 C 0.578125 -0.171875 0.722656 -0.191406 0.796875 -0.234375 C 0.878906 -0.273438 0.941406 -0.34375 0.984375 -0.4375 C 1.023438 -0.539062 1.046875 -0.734375 1.046875 -1.015625 L 1.046875 -2.734375 C 1.046875 -3.222656 1.03125 -3.539062 1 -3.6875 C 0.976562 -3.789062 0.941406 -3.863281 0.890625 -3.90625 C 0.847656 -3.945312 0.785156 -3.96875 0.703125 -3.96875 C 0.609375 -3.96875 0.492188 -3.941406 0.359375 -3.890625 L 0.296875 -4.0625 L 1.640625 -4.609375 Z M 1.859375 -4.609375 "/>
</g>
<g id="glyph-1-0">
<path d="M 4.640625 -5.3125 L 4.703125 -4.0625 L 4.546875 -4.0625 C 4.515625 -4.28125 4.476562 -4.4375 4.4375 -4.53125 C 4.351562 -4.6875 4.242188 -4.796875 4.109375 -4.859375 C 3.972656 -4.929688 3.796875 -4.96875 3.578125 -4.96875 L 2.828125 -4.96875 L 2.828125 -0.921875 C 2.828125 -0.597656 2.863281 -0.394531 2.9375 -0.3125 C 3.03125 -0.195312 3.179688 -0.140625 3.390625 -0.140625 L 3.578125 -0.140625 L 3.578125 0 L 1.328125 0 L 1.328125 -0.140625 L 1.515625 -0.140625 C 1.734375 -0.140625 1.890625 -0.207031 1.984375 -0.34375 C 2.046875 -0.425781 2.078125 -0.617188 2.078125 -0.921875 L 2.078125 -4.96875 L 1.4375 -4.96875 C 1.1875 -4.96875 1.007812 -4.953125 0.90625 -4.921875 C 0.769531 -4.867188 0.65625 -4.769531 0.5625 -4.625 C 0.46875 -4.488281 0.410156 -4.300781 0.390625 -4.0625 L 0.25 -4.0625 L 0.3125 -5.3125 Z M 4.640625 -5.3125 "/>
</g>
<g id="glyph-1-1">
<path d="M 2 -3.6875 C 2.539062 -3.6875 2.976562 -3.484375 3.3125 -3.078125 C 3.59375 -2.722656 3.734375 -2.316406 3.734375 -1.859375 C 3.734375 -1.535156 3.65625 -1.207031 3.5 -0.875 C 3.34375 -0.550781 3.128906 -0.304688 2.859375 -0.140625 C 2.585938 0.0234375 2.285156 0.109375 1.953125 0.109375 C 1.421875 0.109375 0.992188 -0.101562 0.671875 -0.53125 C 0.398438 -0.894531 0.265625 -1.300781 0.265625 -1.75 C 0.265625 -2.082031 0.347656 -2.410156 0.515625 -2.734375 C 0.679688 -3.054688 0.894531 -3.296875 1.15625 -3.453125 C 1.425781 -3.609375 1.707031 -3.6875 2 -3.6875 Z M 1.875 -3.4375 C 1.738281 -3.4375 1.597656 -3.394531 1.453125 -3.3125 C 1.316406 -3.226562 1.207031 -3.082031 1.125 -2.875 C 1.039062 -2.675781 1 -2.414062 1 -2.09375 C 1 -1.5625 1.101562 -1.109375 1.3125 -0.734375 C 1.519531 -0.359375 1.789062 -0.171875 2.125 -0.171875 C 2.382812 -0.171875 2.59375 -0.273438 2.75 -0.484375 C 2.914062 -0.691406 3 -1.050781 3 -1.5625 C 3 -2.195312 2.863281 -2.695312 2.59375 -3.0625 C 2.40625 -3.3125 2.164062 -3.4375 1.875 -3.4375 Z M 1.875 -3.4375 "/>
</g>
<g id="glyph-1-2">
<path d="M -0.015625 -3.234375 L 1.09375 -3.671875 L 1.25 -3.671875 L 1.25 -2.84375 C 1.425781 -3.15625 1.609375 -3.375 1.796875 -3.5 C 1.984375 -3.625 2.179688 -3.6875 2.390625 -3.6875 C 2.753906 -3.6875 3.054688 -3.546875 3.296875 -3.265625 C 3.585938 -2.921875 3.734375 -2.472656 3.734375 -1.921875 C 3.734375 -1.304688 3.554688 -0.796875 3.203125 -0.390625 C 2.910156 -0.0546875 2.539062 0.109375 2.09375 0.109375 C 1.90625 0.109375 1.738281 0.0820312 1.59375 0.03125 C 1.488281 -0.0078125 1.375 -0.0859375 1.25 -0.203125 L 1.25 0.890625 C 1.25 1.128906 1.257812 1.28125 1.28125 1.34375 C 1.3125 1.414062 1.363281 1.46875 1.4375 1.5 C 1.519531 1.539062 1.65625 1.5625 1.84375 1.5625 L 1.84375 1.71875 L -0.03125 1.71875 L -0.03125 1.5625 L 0.078125 1.5625 C 0.210938 1.570312 0.332031 1.546875 0.4375 1.484375 C 0.488281 1.453125 0.523438 1.40625 0.546875 1.34375 C 0.578125 1.28125 0.59375 1.117188 0.59375 0.859375 L 0.59375 -2.53125 C 0.59375 -2.757812 0.582031 -2.90625 0.5625 -2.96875 C 0.539062 -3.03125 0.503906 -3.078125 0.453125 -3.109375 C 0.410156 -3.140625 0.351562 -3.15625 0.28125 -3.15625 C 0.21875 -3.15625 0.140625 -3.140625 0.046875 -3.109375 Z M 1.25 -2.609375 L 1.25 -1.265625 C 1.25 -0.972656 1.257812 -0.785156 1.28125 -0.703125 C 1.3125 -0.546875 1.398438 -0.410156 1.546875 -0.296875 C 1.691406 -0.179688 1.875 -0.125 2.09375 -0.125 C 2.351562 -0.125 2.5625 -0.226562 2.71875 -0.4375 C 2.925781 -0.695312 3.03125 -1.066406 3.03125 -1.546875 C 3.03125 -2.097656 2.910156 -2.519531 2.671875 -2.8125 C 2.503906 -3.019531 2.304688 -3.125 2.078125 -3.125 C 1.953125 -3.125 1.828125 -3.09375 1.703125 -3.03125 C 1.609375 -2.976562 1.457031 -2.835938 1.25 -2.609375 Z M 1.25 -2.609375 "/>
</g>
<g id="glyph-1-3">
<path d="M 1.484375 -5.5625 L 1.484375 -0.8125 C 1.484375 -0.582031 1.5 -0.429688 1.53125 -0.359375 C 1.5625 -0.285156 1.609375 -0.226562 1.671875 -0.1875 C 1.742188 -0.15625 1.875 -0.140625 2.0625 -0.140625 L 2.0625 0 L 0.3125 0 L 0.3125 -0.140625 C 0.46875 -0.140625 0.578125 -0.15625 0.640625 -0.1875 C 0.703125 -0.226562 0.75 -0.285156 0.78125 -0.359375 C 0.8125 -0.441406 0.828125 -0.59375 0.828125 -0.8125 L 0.828125 -4.0625 C 0.828125 -4.46875 0.816406 -4.71875 0.796875 -4.8125 C 0.785156 -4.90625 0.757812 -4.96875 0.71875 -5 C 0.675781 -5.03125 0.625 -5.046875 0.5625 -5.046875 C 0.5 -5.046875 0.414062 -5.023438 0.3125 -4.984375 L 0.234375 -5.125 L 1.3125 -5.5625 Z M 1.484375 -5.5625 "/>
</g>
<g id="glyph-1-4">
<path d="M 1.203125 -1.3125 C 0.984375 -1.414062 0.816406 -1.5625 0.703125 -1.75 C 0.585938 -1.945312 0.53125 -2.160156 0.53125 -2.390625 C 0.53125 -2.742188 0.660156 -3.046875 0.921875 -3.296875 C 1.191406 -3.554688 1.535156 -3.6875 1.953125 -3.6875 C 2.296875 -3.6875 2.59375 -3.601562 2.84375 -3.4375 L 3.609375 -3.4375 C 3.710938 -3.4375 3.773438 -3.429688 3.796875 -3.421875 C 3.816406 -3.421875 3.832031 -3.410156 3.84375 -3.390625 C 3.851562 -3.367188 3.859375 -3.328125 3.859375 -3.265625 C 3.859375 -3.203125 3.851562 -3.15625 3.84375 -3.125 C 3.832031 -3.113281 3.816406 -3.101562 3.796875 -3.09375 C 3.773438 -3.09375 3.710938 -3.09375 3.609375 -3.09375 L 3.140625 -3.09375 C 3.285156 -2.90625 3.359375 -2.664062 3.359375 -2.375 C 3.359375 -2.03125 3.226562 -1.738281 2.96875 -1.5 C 2.71875 -1.269531 2.375 -1.15625 1.9375 -1.15625 C 1.757812 -1.15625 1.582031 -1.179688 1.40625 -1.234375 C 1.289062 -1.128906 1.210938 -1.039062 1.171875 -0.96875 C 1.128906 -0.894531 1.109375 -0.832031 1.109375 -0.78125 C 1.109375 -0.738281 1.128906 -0.695312 1.171875 -0.65625 C 1.210938 -0.613281 1.296875 -0.582031 1.421875 -0.5625 C 1.492188 -0.550781 1.675781 -0.539062 1.96875 -0.53125 C 2.507812 -0.519531 2.859375 -0.503906 3.015625 -0.484375 C 3.253906 -0.453125 3.445312 -0.359375 3.59375 -0.203125 C 3.738281 -0.0546875 3.8125 0.117188 3.8125 0.328125 C 3.8125 0.617188 3.675781 0.894531 3.40625 1.15625 C 3 1.539062 2.46875 1.734375 1.8125 1.734375 C 1.300781 1.734375 0.875 1.617188 0.53125 1.390625 C 0.332031 1.253906 0.234375 1.117188 0.234375 0.984375 C 0.234375 0.921875 0.25 0.859375 0.28125 0.796875 C 0.320312 0.703125 0.414062 0.566406 0.5625 0.390625 C 0.570312 0.367188 0.703125 0.226562 0.953125 -0.03125 C 0.816406 -0.113281 0.71875 -0.1875 0.65625 -0.25 C 0.601562 -0.3125 0.578125 -0.382812 0.578125 -0.46875 C 0.578125 -0.5625 0.613281 -0.664062 0.6875 -0.78125 C 0.769531 -0.90625 0.941406 -1.082031 1.203125 -1.3125 Z M 1.890625 -3.5 C 1.691406 -3.5 1.523438 -3.421875 1.390625 -3.265625 C 1.265625 -3.117188 1.203125 -2.882812 1.203125 -2.5625 C 1.203125 -2.144531 1.289062 -1.828125 1.46875 -1.609375 C 1.601562 -1.429688 1.773438 -1.34375 1.984375 -1.34375 C 2.191406 -1.34375 2.359375 -1.414062 2.484375 -1.5625 C 2.609375 -1.71875 2.671875 -1.953125 2.671875 -2.265625 C 2.671875 -2.679688 2.582031 -3.007812 2.40625 -3.25 C 2.269531 -3.414062 2.097656 -3.5 1.890625 -3.5 Z M 1.171875 0 C 1.046875 0.132812 0.953125 0.257812 0.890625 0.375 C 0.828125 0.488281 0.796875 0.59375 0.796875 0.6875 C 0.796875 0.8125 0.875 0.921875 1.03125 1.015625 C 1.289062 1.179688 1.664062 1.265625 2.15625 1.265625 C 2.625 1.265625 2.96875 1.179688 3.1875 1.015625 C 3.414062 0.847656 3.53125 0.671875 3.53125 0.484375 C 3.53125 0.347656 3.460938 0.25 3.328125 0.1875 C 3.191406 0.132812 2.925781 0.101562 2.53125 0.09375 C 1.9375 0.0703125 1.484375 0.0390625 1.171875 0 Z M 1.171875 0 "/>
</g>
<g id="glyph-1-5">
<path d="M 0.046875 -3.578125 L 1.71875 -3.578125 L 1.71875 -3.4375 L 1.640625 -3.4375 C 1.515625 -3.4375 1.421875 -3.410156 1.359375 -3.359375 C 1.304688 -3.304688 1.28125 -3.242188 1.28125 -3.171875 C 1.28125 -3.066406 1.320312 -2.925781 1.40625 -2.75 L 2.28125 -0.9375 L 3.09375 -2.921875 C 3.132812 -3.023438 3.15625 -3.128906 3.15625 -3.234375 C 3.15625 -3.285156 3.144531 -3.320312 3.125 -3.34375 C 3.101562 -3.375 3.070312 -3.394531 3.03125 -3.40625 C 2.988281 -3.425781 2.910156 -3.4375 2.796875 -3.4375 L 2.796875 -3.578125 L 3.953125 -3.578125 L 3.953125 -3.4375 C 3.859375 -3.425781 3.785156 -3.40625 3.734375 -3.375 C 3.679688 -3.34375 3.625 -3.285156 3.5625 -3.203125 C 3.539062 -3.160156 3.5 -3.0625 3.4375 -2.90625 L 1.96875 0.671875 C 1.832031 1.023438 1.648438 1.289062 1.421875 1.46875 C 1.191406 1.644531 0.972656 1.734375 0.765625 1.734375 C 0.609375 1.734375 0.476562 1.6875 0.375 1.59375 C 0.28125 1.507812 0.234375 1.410156 0.234375 1.296875 C 0.234375 1.179688 0.269531 1.085938 0.34375 1.015625 C 0.414062 0.953125 0.515625 0.921875 0.640625 0.921875 C 0.722656 0.921875 0.835938 0.953125 0.984375 1.015625 C 1.085938 1.054688 1.15625 1.078125 1.1875 1.078125 C 1.257812 1.078125 1.34375 1.035156 1.4375 0.953125 C 1.53125 0.867188 1.625 0.710938 1.71875 0.484375 L 1.96875 -0.140625 L 0.6875 -2.84375 C 0.644531 -2.925781 0.582031 -3.023438 0.5 -3.140625 C 0.4375 -3.234375 0.382812 -3.296875 0.34375 -3.328125 C 0.28125 -3.367188 0.179688 -3.40625 0.046875 -3.4375 Z M 0.046875 -3.578125 "/>
</g>
<g id="glyph-1-6">
</g>
<g id="glyph-1-7">
<path d="M 1.65625 -3.296875 L 1.65625 -0.953125 C 1.65625 -0.617188 1.691406 -0.40625 1.765625 -0.3125 C 1.859375 -0.195312 1.988281 -0.140625 2.15625 -0.140625 L 2.46875 -0.140625 L 2.46875 0 L 0.328125 0 L 0.328125 -0.140625 L 0.5 -0.140625 C 0.601562 -0.140625 0.695312 -0.164062 0.78125 -0.21875 C 0.863281 -0.269531 0.921875 -0.335938 0.953125 -0.421875 C 0.984375 -0.515625 1 -0.691406 1 -0.953125 L 1 -3.296875 L 0.3125 -3.296875 L 0.3125 -3.578125 L 1 -3.578125 L 1 -3.8125 C 1 -4.175781 1.054688 -4.476562 1.171875 -4.71875 C 1.285156 -4.96875 1.460938 -5.171875 1.703125 -5.328125 C 1.941406 -5.484375 2.207031 -5.5625 2.5 -5.5625 C 2.769531 -5.5625 3.019531 -5.472656 3.25 -5.296875 C 3.40625 -5.171875 3.484375 -5.035156 3.484375 -4.890625 C 3.484375 -4.816406 3.445312 -4.742188 3.375 -4.671875 C 3.3125 -4.609375 3.238281 -4.578125 3.15625 -4.578125 C 3.101562 -4.578125 3.039062 -4.597656 2.96875 -4.640625 C 2.90625 -4.679688 2.820312 -4.769531 2.71875 -4.90625 C 2.625 -5.050781 2.539062 -5.148438 2.46875 -5.203125 C 2.382812 -5.253906 2.289062 -5.28125 2.1875 -5.28125 C 2.070312 -5.28125 1.972656 -5.242188 1.890625 -5.171875 C 1.804688 -5.109375 1.742188 -5.007812 1.703125 -4.875 C 1.671875 -4.75 1.65625 -4.40625 1.65625 -3.84375 L 1.65625 -3.578125 L 2.578125 -3.578125 L 2.578125 -3.296875 Z M 1.65625 -3.296875 "/>
</g>
<g id="glyph-1-8">
<path d="M 1.15625 -5.5625 C 1.269531 -5.5625 1.363281 -5.519531 1.4375 -5.4375 C 1.519531 -5.363281 1.5625 -5.273438 1.5625 -5.171875 C 1.5625 -5.054688 1.519531 -4.957031 1.4375 -4.875 C 1.363281 -4.800781 1.269531 -4.765625 1.15625 -4.765625 C 1.050781 -4.765625 0.957031 -4.800781 0.875 -4.875 C 0.800781 -4.957031 0.765625 -5.054688 0.765625 -5.171875 C 0.765625 -5.273438 0.800781 -5.363281 0.875 -5.4375 C 0.957031 -5.519531 1.050781 -5.5625 1.15625 -5.5625 Z M 1.484375 -3.6875 L 1.484375 -0.8125 C 1.484375 -0.582031 1.5 -0.429688 1.53125 -0.359375 C 1.5625 -0.285156 1.609375 -0.226562 1.671875 -0.1875 C 1.742188 -0.15625 1.863281 -0.140625 2.03125 -0.140625 L 2.03125 0 L 0.296875 0 L 0.296875 -0.140625 C 0.460938 -0.140625 0.578125 -0.15625 0.640625 -0.1875 C 0.703125 -0.226562 0.75 -0.285156 0.78125 -0.359375 C 0.820312 -0.441406 0.84375 -0.59375 0.84375 -0.8125 L 0.84375 -2.1875 C 0.84375 -2.582031 0.828125 -2.835938 0.796875 -2.953125 C 0.785156 -3.035156 0.757812 -3.09375 0.71875 -3.125 C 0.675781 -3.15625 0.625 -3.171875 0.5625 -3.171875 C 0.488281 -3.171875 0.398438 -3.148438 0.296875 -3.109375 L 0.234375 -3.25 L 1.3125 -3.6875 Z M 1.484375 -3.6875 "/>
</g>
<g id="glyph-1-9">
<path d="M 0.109375 -3.578125 L 1.796875 -3.578125 L 1.796875 -3.4375 C 1.679688 -3.4375 1.601562 -3.414062 1.5625 -3.375 C 1.519531 -3.34375 1.5 -3.296875 1.5 -3.234375 C 1.5 -3.171875 1.546875 -3.078125 1.640625 -2.953125 C 1.671875 -2.910156 1.710938 -2.84375 1.765625 -2.75 L 2.03125 -2.34375 L 2.3125 -2.75 C 2.5 -3.007812 2.59375 -3.175781 2.59375 -3.25 C 2.59375 -3.300781 2.570312 -3.34375 2.53125 -3.375 C 2.488281 -3.414062 2.414062 -3.4375 2.3125 -3.4375 L 2.3125 -3.578125 L 3.53125 -3.578125 L 3.53125 -3.4375 C 3.40625 -3.425781 3.296875 -3.390625 3.203125 -3.328125 C 3.066406 -3.242188 2.890625 -3.050781 2.671875 -2.75 L 2.1875 -2.109375 L 3.078125 -0.8125 C 3.296875 -0.5 3.453125 -0.3125 3.546875 -0.25 C 3.640625 -0.1875 3.757812 -0.148438 3.90625 -0.140625 L 3.90625 0 L 2.21875 0 L 2.21875 -0.140625 C 2.332031 -0.140625 2.425781 -0.164062 2.5 -0.21875 C 2.539062 -0.257812 2.5625 -0.304688 2.5625 -0.359375 C 2.5625 -0.421875 2.476562 -0.570312 2.3125 -0.8125 L 1.796875 -1.578125 L 1.21875 -0.8125 C 1.039062 -0.582031 0.953125 -0.441406 0.953125 -0.390625 C 0.953125 -0.328125 0.976562 -0.269531 1.03125 -0.21875 C 1.09375 -0.175781 1.179688 -0.148438 1.296875 -0.140625 L 1.296875 0 L 0.140625 0 L 0.140625 -0.140625 C 0.234375 -0.148438 0.3125 -0.179688 0.375 -0.234375 C 0.476562 -0.316406 0.644531 -0.507812 0.875 -0.8125 L 1.625 -1.8125 L 0.953125 -2.796875 C 0.753906 -3.078125 0.601562 -3.253906 0.5 -3.328125 C 0.394531 -3.398438 0.265625 -3.4375 0.109375 -3.4375 Z M 0.109375 -3.578125 "/>
</g>
<g id="glyph-1-10">
<path d="M 0.859375 -2.234375 C 0.847656 -1.703125 0.972656 -1.285156 1.234375 -0.984375 C 1.492188 -0.679688 1.800781 -0.53125 2.15625 -0.53125 C 2.394531 -0.53125 2.597656 -0.59375 2.765625 -0.71875 C 2.941406 -0.851562 3.085938 -1.078125 3.203125 -1.390625 L 3.328125 -1.3125 C 3.273438 -0.945312 3.113281 -0.617188 2.84375 -0.328125 C 2.582031 -0.0351562 2.253906 0.109375 1.859375 0.109375 C 1.429688 0.109375 1.0625 -0.0546875 0.75 -0.390625 C 0.445312 -0.722656 0.296875 -1.175781 0.296875 -1.75 C 0.296875 -2.363281 0.453125 -2.835938 0.765625 -3.171875 C 1.078125 -3.515625 1.472656 -3.6875 1.953125 -3.6875 C 2.359375 -3.6875 2.6875 -3.554688 2.9375 -3.296875 C 3.195312 -3.035156 3.328125 -2.679688 3.328125 -2.234375 Z M 0.859375 -2.46875 L 2.515625 -2.46875 C 2.503906 -2.695312 2.476562 -2.859375 2.4375 -2.953125 C 2.363281 -3.097656 2.257812 -3.210938 2.125 -3.296875 C 2 -3.378906 1.867188 -3.421875 1.734375 -3.421875 C 1.515625 -3.421875 1.316406 -3.332031 1.140625 -3.15625 C 0.972656 -2.988281 0.878906 -2.757812 0.859375 -2.46875 Z M 0.859375 -2.46875 "/>
</g>
<g id="glyph-1-11">
<path d="M 2.78125 -0.40625 C 2.601562 -0.21875 2.429688 -0.0820312 2.265625 0 C 2.097656 0.0703125 1.921875 0.109375 1.734375 0.109375 C 1.335938 0.109375 0.992188 -0.0507812 0.703125 -0.375 C 0.410156 -0.707031 0.265625 -1.128906 0.265625 -1.640625 C 0.265625 -2.160156 0.425781 -2.628906 0.75 -3.046875 C 1.070312 -3.472656 1.488281 -3.6875 2 -3.6875 C 2.3125 -3.6875 2.570312 -3.585938 2.78125 -3.390625 L 2.78125 -4.0625 C 2.78125 -4.46875 2.769531 -4.71875 2.75 -4.8125 C 2.726562 -4.90625 2.695312 -4.96875 2.65625 -5 C 2.613281 -5.03125 2.5625 -5.046875 2.5 -5.046875 C 2.4375 -5.046875 2.347656 -5.023438 2.234375 -4.984375 L 2.1875 -5.125 L 3.25 -5.5625 L 3.421875 -5.5625 L 3.421875 -1.421875 C 3.421875 -1.003906 3.429688 -0.75 3.453125 -0.65625 C 3.472656 -0.5625 3.503906 -0.492188 3.546875 -0.453125 C 3.585938 -0.421875 3.640625 -0.40625 3.703125 -0.40625 C 3.773438 -0.40625 3.867188 -0.425781 3.984375 -0.46875 L 4.03125 -0.328125 L 2.96875 0.109375 L 2.78125 0.109375 Z M 2.78125 -0.671875 L 2.78125 -2.53125 C 2.769531 -2.707031 2.722656 -2.867188 2.640625 -3.015625 C 2.566406 -3.160156 2.460938 -3.269531 2.328125 -3.34375 C 2.203125 -3.414062 2.078125 -3.453125 1.953125 -3.453125 C 1.722656 -3.453125 1.519531 -3.347656 1.34375 -3.140625 C 1.101562 -2.867188 0.984375 -2.472656 0.984375 -1.953125 C 0.984375 -1.421875 1.097656 -1.015625 1.328125 -0.734375 C 1.554688 -0.460938 1.8125 -0.328125 2.09375 -0.328125 C 2.332031 -0.328125 2.5625 -0.441406 2.78125 -0.671875 Z M 2.78125 -0.671875 "/>
</g>
<g id="glyph-1-12">
<path d="M 2.28125 -0.515625 C 1.914062 -0.234375 1.6875 -0.0703125 1.59375 -0.03125 C 1.445312 0.0390625 1.296875 0.078125 1.140625 0.078125 C 0.890625 0.078125 0.679688 -0.00390625 0.515625 -0.171875 C 0.359375 -0.347656 0.28125 -0.570312 0.28125 -0.84375 C 0.28125 -1.019531 0.320312 -1.171875 0.40625 -1.296875 C 0.507812 -1.472656 0.691406 -1.640625 0.953125 -1.796875 C 1.222656 -1.960938 1.664062 -2.15625 2.28125 -2.375 L 2.28125 -2.515625 C 2.28125 -2.867188 2.222656 -3.113281 2.109375 -3.25 C 1.992188 -3.382812 1.828125 -3.453125 1.609375 -3.453125 C 1.453125 -3.453125 1.320312 -3.40625 1.21875 -3.3125 C 1.125 -3.226562 1.078125 -3.128906 1.078125 -3.015625 L 1.078125 -2.78125 C 1.078125 -2.664062 1.046875 -2.570312 0.984375 -2.5 C 0.929688 -2.4375 0.851562 -2.40625 0.75 -2.40625 C 0.65625 -2.40625 0.578125 -2.4375 0.515625 -2.5 C 0.453125 -2.570312 0.421875 -2.671875 0.421875 -2.796875 C 0.421875 -3.015625 0.535156 -3.21875 0.765625 -3.40625 C 0.992188 -3.59375 1.316406 -3.6875 1.734375 -3.6875 C 2.054688 -3.6875 2.316406 -3.632812 2.515625 -3.53125 C 2.671875 -3.445312 2.785156 -3.320312 2.859375 -3.15625 C 2.898438 -3.039062 2.921875 -2.8125 2.921875 -2.46875 L 2.921875 -1.25 C 2.921875 -0.90625 2.925781 -0.691406 2.9375 -0.609375 C 2.957031 -0.535156 2.984375 -0.484375 3.015625 -0.453125 C 3.046875 -0.429688 3.078125 -0.421875 3.109375 -0.421875 C 3.148438 -0.421875 3.1875 -0.429688 3.21875 -0.453125 C 3.28125 -0.484375 3.390625 -0.578125 3.546875 -0.734375 L 3.546875 -0.515625 C 3.253906 -0.117188 2.972656 0.078125 2.703125 0.078125 C 2.578125 0.078125 2.472656 0.03125 2.390625 -0.0625 C 2.316406 -0.15625 2.28125 -0.304688 2.28125 -0.515625 Z M 2.28125 -0.765625 L 2.28125 -2.140625 C 1.882812 -1.984375 1.628906 -1.867188 1.515625 -1.796875 C 1.304688 -1.679688 1.15625 -1.5625 1.0625 -1.4375 C 0.976562 -1.3125 0.9375 -1.175781 0.9375 -1.03125 C 0.9375 -0.84375 0.992188 -0.6875 1.109375 -0.5625 C 1.222656 -0.4375 1.351562 -0.375 1.5 -0.375 C 1.695312 -0.375 1.957031 -0.503906 2.28125 -0.765625 Z M 2.28125 -0.765625 "/>
</g>
<g id="glyph-1-13">
<path d="M 1.296875 -4.765625 L 1.296875 -3.578125 L 2.125 -3.578125 L 2.125 -3.3125 L 1.296875 -3.3125 L 1.296875 -0.984375 C 1.296875 -0.753906 1.328125 -0.597656 1.390625 -0.515625 C 1.453125 -0.429688 1.535156 -0.390625 1.640625 -0.390625 C 1.734375 -0.390625 1.816406 -0.414062 1.890625 -0.46875 C 1.972656 -0.53125 2.039062 -0.613281 2.09375 -0.71875 L 2.234375 -0.71875 C 2.148438 -0.457031 2.019531 -0.257812 1.84375 -0.125 C 1.675781 0 1.503906 0.0625 1.328125 0.0625 C 1.210938 0.0625 1.097656 0.03125 0.984375 -0.03125 C 0.867188 -0.101562 0.78125 -0.203125 0.71875 -0.328125 C 0.664062 -0.453125 0.640625 -0.644531 0.640625 -0.90625 L 0.640625 -3.3125 L 0.078125 -3.3125 L 0.078125 -3.4375 C 0.222656 -3.5 0.367188 -3.597656 0.515625 -3.734375 C 0.671875 -3.867188 0.804688 -4.03125 0.921875 -4.21875 C 0.984375 -4.320312 1.066406 -4.503906 1.171875 -4.765625 Z M 1.296875 -4.765625 "/>
</g>
<g id="glyph-1-14">
<path d="M 1.296875 -2.9375 C 1.710938 -3.4375 2.113281 -3.6875 2.5 -3.6875 C 2.695312 -3.6875 2.863281 -3.632812 3 -3.53125 C 3.144531 -3.4375 3.257812 -3.28125 3.34375 -3.0625 C 3.394531 -2.90625 3.421875 -2.664062 3.421875 -2.34375 L 3.421875 -0.8125 C 3.421875 -0.582031 3.441406 -0.425781 3.484375 -0.34375 C 3.503906 -0.28125 3.546875 -0.226562 3.609375 -0.1875 C 3.679688 -0.15625 3.800781 -0.140625 3.96875 -0.140625 L 3.96875 0 L 2.203125 0 L 2.203125 -0.140625 L 2.28125 -0.140625 C 2.445312 -0.140625 2.5625 -0.164062 2.625 -0.21875 C 2.6875 -0.269531 2.734375 -0.34375 2.765625 -0.4375 C 2.773438 -0.476562 2.78125 -0.601562 2.78125 -0.8125 L 2.78125 -2.28125 C 2.78125 -2.601562 2.738281 -2.835938 2.65625 -2.984375 C 2.570312 -3.128906 2.425781 -3.203125 2.21875 -3.203125 C 1.90625 -3.203125 1.597656 -3.035156 1.296875 -2.703125 L 1.296875 -0.8125 C 1.296875 -0.570312 1.3125 -0.421875 1.34375 -0.359375 C 1.375 -0.285156 1.421875 -0.226562 1.484375 -0.1875 C 1.546875 -0.15625 1.675781 -0.140625 1.875 -0.140625 L 1.875 0 L 0.109375 0 L 0.109375 -0.140625 L 0.1875 -0.140625 C 0.363281 -0.140625 0.484375 -0.1875 0.546875 -0.28125 C 0.617188 -0.375 0.65625 -0.550781 0.65625 -0.8125 L 0.65625 -2.140625 C 0.65625 -2.566406 0.644531 -2.828125 0.625 -2.921875 C 0.601562 -3.015625 0.570312 -3.078125 0.53125 -3.109375 C 0.488281 -3.148438 0.4375 -3.171875 0.375 -3.171875 C 0.300781 -3.171875 0.210938 -3.148438 0.109375 -3.109375 L 0.046875 -3.25 L 1.125 -3.6875 L 1.296875 -3.6875 Z M 1.296875 -2.9375 "/>
</g>
<g id="glyph-1-15">
<path d="M 0.0625 -3.578125 L 1.75 -3.578125 L 1.75 -3.4375 L 1.640625 -3.4375 C 1.535156 -3.4375 1.457031 -3.410156 1.40625 -3.359375 C 1.351562 -3.316406 1.328125 -3.253906 1.328125 -3.171875 C 1.328125 -3.078125 1.351562 -2.96875 1.40625 -2.84375 L 2.25 -0.859375 L 3.078125 -2.921875 C 3.140625 -3.066406 3.171875 -3.175781 3.171875 -3.25 C 3.171875 -3.28125 3.160156 -3.3125 3.140625 -3.34375 C 3.109375 -3.375 3.070312 -3.394531 3.03125 -3.40625 C 2.988281 -3.425781 2.898438 -3.4375 2.765625 -3.4375 L 2.765625 -3.578125 L 3.9375 -3.578125 L 3.9375 -3.4375 C 3.800781 -3.425781 3.707031 -3.398438 3.65625 -3.359375 C 3.5625 -3.273438 3.476562 -3.144531 3.40625 -2.96875 L 2.140625 0.109375 L 1.96875 0.109375 L 0.6875 -2.921875 C 0.632812 -3.054688 0.582031 -3.15625 0.53125 -3.21875 C 0.476562 -3.28125 0.410156 -3.332031 0.328125 -3.375 C 0.285156 -3.394531 0.195312 -3.414062 0.0625 -3.4375 Z M 0.0625 -3.578125 "/>
</g>
<g id="glyph-1-16">
<path d="M 3.296875 -1.359375 C 3.203125 -0.890625 3.015625 -0.523438 2.734375 -0.265625 C 2.453125 -0.015625 2.140625 0.109375 1.796875 0.109375 C 1.390625 0.109375 1.035156 -0.0625 0.734375 -0.40625 C 0.429688 -0.75 0.28125 -1.207031 0.28125 -1.78125 C 0.28125 -2.351562 0.445312 -2.8125 0.78125 -3.15625 C 1.113281 -3.507812 1.515625 -3.6875 1.984375 -3.6875 C 2.335938 -3.6875 2.625 -3.59375 2.84375 -3.40625 C 3.070312 -3.21875 3.1875 -3.023438 3.1875 -2.828125 C 3.1875 -2.734375 3.15625 -2.65625 3.09375 -2.59375 C 3.03125 -2.53125 2.941406 -2.5 2.828125 -2.5 C 2.671875 -2.5 2.554688 -2.546875 2.484375 -2.640625 C 2.441406 -2.703125 2.410156 -2.804688 2.390625 -2.953125 C 2.378906 -3.109375 2.328125 -3.226562 2.234375 -3.3125 C 2.140625 -3.382812 2.015625 -3.421875 1.859375 -3.421875 C 1.597656 -3.421875 1.382812 -3.328125 1.21875 -3.140625 C 1.007812 -2.878906 0.90625 -2.539062 0.90625 -2.125 C 0.90625 -1.695312 1.007812 -1.316406 1.21875 -0.984375 C 1.425781 -0.660156 1.710938 -0.5 2.078125 -0.5 C 2.328125 -0.5 2.554688 -0.585938 2.765625 -0.765625 C 2.910156 -0.878906 3.050781 -1.097656 3.1875 -1.421875 Z M 3.296875 -1.359375 "/>
</g>
<g id="glyph-1-17">
<path d="M 1.3125 -2.921875 C 1.570312 -3.179688 1.726562 -3.332031 1.78125 -3.375 C 1.894531 -3.476562 2.019531 -3.554688 2.15625 -3.609375 C 2.289062 -3.660156 2.425781 -3.6875 2.5625 -3.6875 C 2.78125 -3.6875 2.96875 -3.617188 3.125 -3.484375 C 3.289062 -3.359375 3.40625 -3.171875 3.46875 -2.921875 C 3.726562 -3.234375 3.953125 -3.4375 4.140625 -3.53125 C 4.328125 -3.632812 4.519531 -3.6875 4.71875 -3.6875 C 4.90625 -3.6875 5.070312 -3.632812 5.21875 -3.53125 C 5.363281 -3.4375 5.484375 -3.28125 5.578125 -3.0625 C 5.628906 -2.914062 5.65625 -2.679688 5.65625 -2.359375 L 5.65625 -0.8125 C 5.65625 -0.582031 5.671875 -0.425781 5.703125 -0.34375 C 5.734375 -0.289062 5.78125 -0.242188 5.84375 -0.203125 C 5.914062 -0.160156 6.035156 -0.140625 6.203125 -0.140625 L 6.203125 0 L 4.4375 0 L 4.4375 -0.140625 L 4.5 -0.140625 C 4.65625 -0.140625 4.773438 -0.171875 4.859375 -0.234375 C 4.921875 -0.273438 4.96875 -0.34375 5 -0.4375 C 5.007812 -0.476562 5.015625 -0.601562 5.015625 -0.8125 L 5.015625 -2.359375 C 5.015625 -2.648438 4.976562 -2.851562 4.90625 -2.96875 C 4.800781 -3.132812 4.640625 -3.21875 4.421875 -3.21875 C 4.273438 -3.21875 4.128906 -3.179688 3.984375 -3.109375 C 3.847656 -3.046875 3.679688 -2.921875 3.484375 -2.734375 L 3.484375 -0.8125 C 3.484375 -0.5625 3.5 -0.40625 3.53125 -0.34375 C 3.5625 -0.289062 3.613281 -0.242188 3.6875 -0.203125 C 3.757812 -0.160156 3.890625 -0.140625 4.078125 -0.140625 L 4.078125 0 L 2.265625 0 L 2.265625 -0.140625 C 2.460938 -0.140625 2.597656 -0.160156 2.671875 -0.203125 C 2.742188 -0.253906 2.796875 -0.328125 2.828125 -0.421875 C 2.835938 -0.460938 2.84375 -0.59375 2.84375 -0.8125 L 2.84375 -2.359375 C 2.84375 -2.648438 2.800781 -2.859375 2.71875 -2.984375 C 2.601562 -3.148438 2.441406 -3.234375 2.234375 -3.234375 C 2.097656 -3.234375 1.957031 -3.195312 1.8125 -3.125 C 1.59375 -3.007812 1.425781 -2.878906 1.3125 -2.734375 L 1.3125 -0.8125 C 1.3125 -0.570312 1.328125 -0.414062 1.359375 -0.34375 C 1.390625 -0.28125 1.4375 -0.226562 1.5 -0.1875 C 1.570312 -0.15625 1.703125 -0.140625 1.890625 -0.140625 L 1.890625 0 L 0.125 0 L 0.125 -0.140625 C 0.289062 -0.140625 0.40625 -0.15625 0.46875 -0.1875 C 0.53125 -0.226562 0.578125 -0.285156 0.609375 -0.359375 C 0.648438 -0.441406 0.671875 -0.59375 0.671875 -0.8125 L 0.671875 -2.1875 C 0.671875 -2.570312 0.660156 -2.820312 0.640625 -2.9375 C 0.617188 -3.03125 0.585938 -3.09375 0.546875 -3.125 C 0.503906 -3.15625 0.453125 -3.171875 0.390625 -3.171875 C 0.316406 -3.171875 0.226562 -3.148438 0.125 -3.109375 L 0.0625 -3.25 L 1.140625 -3.6875 L 1.3125 -3.6875 Z M 1.3125 -2.921875 "/>
</g>
<g id="glyph-1-18">
<path d="M 4.828125 -5.421875 L 4.953125 -3.625 L 4.828125 -3.625 C 4.660156 -4.164062 4.425781 -4.550781 4.125 -4.78125 C 3.832031 -5.019531 3.472656 -5.140625 3.046875 -5.140625 C 2.703125 -5.140625 2.382812 -5.050781 2.09375 -4.875 C 1.8125 -4.695312 1.585938 -4.410156 1.421875 -4.015625 C 1.265625 -3.628906 1.1875 -3.144531 1.1875 -2.5625 C 1.1875 -2.082031 1.257812 -1.664062 1.40625 -1.3125 C 1.5625 -0.957031 1.796875 -0.6875 2.109375 -0.5 C 2.421875 -0.3125 2.773438 -0.21875 3.171875 -0.21875 C 3.515625 -0.21875 3.816406 -0.289062 4.078125 -0.4375 C 4.335938 -0.59375 4.628906 -0.890625 4.953125 -1.328125 L 5.0625 -1.25 C 4.800781 -0.769531 4.492188 -0.421875 4.140625 -0.203125 C 3.785156 0.015625 3.363281 0.125 2.875 0.125 C 1.988281 0.125 1.304688 -0.203125 0.828125 -0.859375 C 0.472656 -1.335938 0.296875 -1.910156 0.296875 -2.578125 C 0.296875 -3.097656 0.410156 -3.582031 0.640625 -4.03125 C 0.878906 -4.476562 1.207031 -4.820312 1.625 -5.0625 C 2.039062 -5.300781 2.492188 -5.421875 2.984375 -5.421875 C 3.367188 -5.421875 3.75 -5.328125 4.125 -5.140625 C 4.238281 -5.085938 4.316406 -5.0625 4.359375 -5.0625 C 4.429688 -5.0625 4.492188 -5.085938 4.546875 -5.140625 C 4.609375 -5.203125 4.65625 -5.296875 4.6875 -5.421875 Z M 4.828125 -5.421875 "/>
</g>
<g id="glyph-1-19">
<path d="M 2.5625 -3.6875 L 2.5625 -2.46875 L 2.4375 -2.46875 C 2.34375 -2.851562 2.21875 -3.113281 2.0625 -3.25 C 1.90625 -3.382812 1.707031 -3.453125 1.46875 -3.453125 C 1.28125 -3.453125 1.128906 -3.40625 1.015625 -3.3125 C 0.910156 -3.21875 0.859375 -3.113281 0.859375 -3 C 0.859375 -2.851562 0.898438 -2.726562 0.984375 -2.625 C 1.054688 -2.507812 1.21875 -2.394531 1.46875 -2.28125 L 2.046875 -2 C 2.578125 -1.738281 2.84375 -1.398438 2.84375 -0.984375 C 2.84375 -0.648438 2.71875 -0.382812 2.46875 -0.1875 C 2.21875 0.0078125 1.941406 0.109375 1.640625 0.109375 C 1.421875 0.109375 1.171875 0.0664062 0.890625 -0.015625 C 0.804688 -0.0351562 0.734375 -0.046875 0.671875 -0.046875 C 0.617188 -0.046875 0.570312 -0.0078125 0.53125 0.0625 L 0.40625 0.0625 L 0.40625 -1.21875 L 0.53125 -1.21875 C 0.601562 -0.851562 0.742188 -0.578125 0.953125 -0.390625 C 1.160156 -0.210938 1.390625 -0.125 1.640625 -0.125 C 1.828125 -0.125 1.976562 -0.175781 2.09375 -0.28125 C 2.207031 -0.382812 2.265625 -0.507812 2.265625 -0.65625 C 2.265625 -0.84375 2.195312 -0.992188 2.0625 -1.109375 C 1.9375 -1.234375 1.6875 -1.390625 1.3125 -1.578125 C 0.9375 -1.765625 0.6875 -1.9375 0.5625 -2.09375 C 0.445312 -2.238281 0.390625 -2.425781 0.390625 -2.65625 C 0.390625 -2.945312 0.488281 -3.191406 0.6875 -3.390625 C 0.894531 -3.585938 1.160156 -3.6875 1.484375 -3.6875 C 1.617188 -3.6875 1.785156 -3.65625 1.984375 -3.59375 C 2.117188 -3.5625 2.210938 -3.546875 2.265625 -3.546875 C 2.304688 -3.546875 2.335938 -3.550781 2.359375 -3.5625 C 2.378906 -3.582031 2.40625 -3.625 2.4375 -3.6875 Z M 2.5625 -3.6875 "/>
</g>
<g id="glyph-1-20">
<path d="M 1.296875 -3.6875 L 1.296875 -2.890625 C 1.597656 -3.421875 1.90625 -3.6875 2.21875 -3.6875 C 2.363281 -3.6875 2.484375 -3.640625 2.578125 -3.546875 C 2.671875 -3.460938 2.71875 -3.363281 2.71875 -3.25 C 2.71875 -3.15625 2.679688 -3.070312 2.609375 -3 C 2.546875 -2.925781 2.46875 -2.890625 2.375 -2.890625 C 2.28125 -2.890625 2.175781 -2.929688 2.0625 -3.015625 C 1.945312 -3.109375 1.863281 -3.15625 1.8125 -3.15625 C 1.769531 -3.15625 1.71875 -3.128906 1.65625 -3.078125 C 1.539062 -2.972656 1.421875 -2.800781 1.296875 -2.5625 L 1.296875 -0.84375 C 1.296875 -0.644531 1.320312 -0.492188 1.375 -0.390625 C 1.40625 -0.316406 1.460938 -0.253906 1.546875 -0.203125 C 1.640625 -0.160156 1.765625 -0.140625 1.921875 -0.140625 L 1.921875 0 L 0.09375 0 L 0.09375 -0.140625 C 0.269531 -0.140625 0.40625 -0.171875 0.5 -0.234375 C 0.5625 -0.273438 0.609375 -0.335938 0.640625 -0.421875 C 0.648438 -0.472656 0.65625 -0.601562 0.65625 -0.8125 L 0.65625 -2.203125 C 0.65625 -2.617188 0.644531 -2.863281 0.625 -2.9375 C 0.613281 -3.019531 0.582031 -3.078125 0.53125 -3.109375 C 0.488281 -3.148438 0.429688 -3.171875 0.359375 -3.171875 C 0.285156 -3.171875 0.195312 -3.148438 0.09375 -3.109375 L 0.046875 -3.25 L 1.140625 -3.6875 Z M 1.296875 -3.6875 "/>
</g>
<g id="glyph-1-21">
<path d="M 3.390625 -3.578125 L 3.390625 -1.40625 C 3.390625 -1 3.398438 -0.75 3.421875 -0.65625 C 3.441406 -0.5625 3.472656 -0.492188 3.515625 -0.453125 C 3.554688 -0.421875 3.609375 -0.40625 3.671875 -0.40625 C 3.742188 -0.40625 3.832031 -0.425781 3.9375 -0.46875 L 4 -0.328125 L 2.921875 0.109375 L 2.75 0.109375 L 2.75 -0.65625 C 2.4375 -0.320312 2.195312 -0.109375 2.03125 -0.015625 C 1.875 0.0664062 1.707031 0.109375 1.53125 0.109375 C 1.332031 0.109375 1.15625 0.0507812 1 -0.0625 C 0.851562 -0.175781 0.75 -0.320312 0.6875 -0.5 C 0.632812 -0.6875 0.609375 -0.945312 0.609375 -1.28125 L 0.609375 -2.890625 C 0.609375 -3.054688 0.585938 -3.171875 0.546875 -3.234375 C 0.515625 -3.304688 0.460938 -3.359375 0.390625 -3.390625 C 0.328125 -3.421875 0.203125 -3.4375 0.015625 -3.4375 L 0.015625 -3.578125 L 1.265625 -3.578125 L 1.265625 -1.1875 C 1.265625 -0.851562 1.320312 -0.632812 1.4375 -0.53125 C 1.550781 -0.425781 1.691406 -0.375 1.859375 -0.375 C 1.972656 -0.375 2.097656 -0.40625 2.234375 -0.46875 C 2.378906 -0.539062 2.550781 -0.675781 2.75 -0.875 L 2.75 -2.90625 C 2.75 -3.113281 2.710938 -3.253906 2.640625 -3.328125 C 2.566406 -3.398438 2.410156 -3.4375 2.171875 -3.4375 L 2.171875 -3.578125 Z M 3.390625 -3.578125 "/>
</g>
<g id="glyph-1-22">
<path d="M 0.328125 -2.09375 L 2.34375 -2.09375 L 2.34375 -1.5 L 0.328125 -1.5 Z M 0.328125 -2.09375 "/>
</g>
</g>
</defs>
<g fill="rgb(0%, 0%, 0%)" fill-opacity="1">
<use xlink:href="#glyph-0-0" x="50.018666" y="10.097048"/>
<use xlink:href="#glyph-0-1" x="55.596304" y="10.097048"/>
<use xlink:href="#glyph-0-2" x="58.382674" y="10.097048"/>
<use xlink:href="#glyph-0-3" x="62.834011" y="10.097048"/>
<use xlink:href="#glyph-0-4" x="67.848499" y="10.097048"/>
<use xlink:href="#glyph-0-5" x="71.188226" y="10.097048"/>
<use xlink:href="#glyph-0-2" x="76.202714" y="10.097048"/>
<use xlink:href="#glyph-0-6" x="80.654051" y="10.097048"/>
<use xlink:href="#glyph-0-7" x="84.556928" y="10.097048"/>
<use xlink:href="#glyph-0-8" x="89.008265" y="10.097048"/>
<use xlink:href="#glyph-0-9" x="94.022753" y="10.097048"/>
<use xlink:href="#glyph-0-10" x="96.529996" y="10.097048"/>
<use xlink:href="#glyph-0-11" x="101.544484" y="10.097048"/>
<use xlink:href="#glyph-0-12" x="104.884211" y="10.097048"/>
<use xlink:href="#glyph-0-13" x="109.335548" y="10.097048"/>
<use xlink:href="#glyph-0-7" x="114.350035" y="10.097048"/>
<use xlink:href="#glyph-0-6" x="118.801372" y="10.097048"/>
<use xlink:href="#glyph-0-14" x="122.70425" y="10.097048"/>
<use xlink:href="#glyph-0-11" x="125.49062" y="10.097048"/>
<use xlink:href="#glyph-0-2" x="128.830347" y="10.097048"/>
<use xlink:href="#glyph-0-14" x="133.281684" y="10.097048"/>
<use xlink:href="#glyph-0-15" x="136.068055" y="10.097048"/>
<use xlink:href="#glyph-0-10" x="138.854425" y="10.097048"/>
<use xlink:href="#glyph-0-3" x="143.868913" y="10.097048"/>
</g>
<g fill="rgb(0%, 0%, 0%)" fill-opacity="1">
<use xlink:href="#glyph-1-0" x="44.961644" y="18.653871"/>
</g>
<g fill="rgb(0%, 0%, 0%)" fill-opacity="1">
<use xlink:href="#glyph-1-1" x="49.300893" y="18.653871"/>
<use xlink:href="#glyph-1-2" x="53.312478" y="18.653871"/>
<use xlink:href="#glyph-1-1" x="57.324062" y="18.653871"/>
<use xlink:href="#glyph-1-3" x="61.335647" y="18.653871"/>
<use xlink:href="#glyph-1-1" x="63.56474" y="18.653871"/>
<use xlink:href="#glyph-1-4" x="67.576325" y="18.653871"/>
<use xlink:href="#glyph-1-5" x="71.587909" y="18.653871"/>
<use xlink:href="#glyph-1-6" x="75.599494" y="18.653871"/>
<use xlink:href="#glyph-1-7" x="77.605286" y="18.653871"/>
<use xlink:href="#glyph-1-8" x="80.277064" y="18.653871"/>
<use xlink:href="#glyph-1-9" x="82.506157" y="18.653871"/>
<use xlink:href="#glyph-1-10" x="86.517742" y="18.653871"/>
<use xlink:href="#glyph-1-11" x="90.078807" y="18.653871"/>
<use xlink:href="#glyph-1-6" x="94.090391" y="18.653871"/>
<use xlink:href="#glyph-1-12" x="96.096183" y="18.653871"/>
<use xlink:href="#glyph-1-13" x="99.657248" y="18.653871"/>
<use xlink:href="#glyph-1-6" x="101.886341" y="18.653871"/>
<use xlink:href="#glyph-1-8" x="103.892134" y="18.653871"/>
<use xlink:href="#glyph-1-14" x="106.121227" y="18.653871"/>
<use xlink:href="#glyph-1-15" x="110.132812" y="18.653871"/>
<use xlink:href="#glyph-1-1" x="114.144396" y="18.653871"/>
<use xlink:href="#glyph-1-16" x="118.155981" y="18.653871"/>
<use xlink:href="#glyph-1-12" x="121.717045" y="18.653871"/>
<use xlink:href="#glyph-1-13" x="125.27811" y="18.653871"/>
<use xlink:href="#glyph-1-8" x="127.507203" y="18.653871"/>
<use xlink:href="#glyph-1-1" x="129.736297" y="18.653871"/>
<use xlink:href="#glyph-1-14" x="133.747881" y="18.653871"/>
<use xlink:href="#glyph-1-6" x="137.759466" y="18.653871"/>
<use xlink:href="#glyph-1-13" x="139.765258" y="18.653871"/>
<use xlink:href="#glyph-1-8" x="141.994351" y="18.653871"/>
<use xlink:href="#glyph-1-17" x="144.223445" y="18.653871"/>
<use xlink:href="#glyph-1-10" x="150.464122" y="18.653871"/>
</g>
<path fill="none" stroke-width="0.601739" stroke-linecap="butt" stroke-linejoin="round" stroke="rgb(0%, 0%, 0%)" stroke-opacity="1" stroke-miterlimit="9.2" d="M 5.988281 0.301084 L 193.011719 0.301084 C 196.164062 0.301084 198.699219 2.83488 198.699219 5.986485 L 198.699219 65.084942 C 198.699219 68.236546 196.164062 70.770343 193.011719 70.770343 L 5.988281 70.770343 C 2.835938 70.770343 0.300781 68.236546 0.300781 65.084942 L 0.300781 5.986485 C 0.300781 2.83488 2.835938 0.301084 5.988281 0.301084 Z M 5.988281 0.301084 " transform="matrix(1, 0, 0, 0.998995, 0, 0)"/>
<path fill-rule="nonzero" fill="rgb(89.802551%, 89.802551%, 89.802551%)" fill-opacity="1" stroke-width="0.601739" stroke-linecap="butt" stroke-linejoin="round" stroke="rgb(0%, 0%, 0%)" stroke-opacity="1" stroke-miterlimit="9.2" d="M 94.015625 26.401534 L 187.328125 26.401534 C 190.476562 26.401534 193.011719 28.93924 193.011719 32.086935 L 193.011719 59.3839 C 193.011719 62.535504 190.476562 65.069301 187.328125 65.069301 L 94.015625 65.069301 C 90.863281 65.069301 88.328125 62.535504 88.328125 59.3839 L 88.328125 32.086935 C 88.328125 28.93924 90.863281 26.401534 94.015625 26.401534 Z M 94.015625 26.401534 " transform="matrix(1, 0, 0, 0.998995, 0, 0)"/>
<path fill-rule="nonzero" fill="rgb(33.724976%, 70.587158%, 91.371155%)" fill-opacity="1" stroke-width="0.601739" stroke-linecap="butt" stroke-linejoin="round" stroke="rgb(0%, 0%, 0%)" stroke-opacity="1" stroke-miterlimit="9.2" d="M 177.980469 40.353055 L 185.90625 40.353055 C 186.695312 40.353055 187.328125 40.986504 187.328125 41.77245 L 187.328125 49.698384 C 187.328125 50.488241 186.695312 51.12169 185.90625 51.12169 L 177.980469 51.12169 C 177.191406 51.12169 176.558594 50.488241 176.558594 49.698384 L 176.558594 41.77245 C 176.558594 40.986504 177.191406 40.353055 177.980469 40.353055 Z M 177.980469 40.353055 " transform="matrix(1, 0, 0, 0.998995, 0, 0)"/>
<path fill-rule="nonzero" fill="rgb(33.724976%, 70.587158%, 91.371155%)" fill-opacity="1" stroke-width="0.601739" stroke-linecap="butt" stroke-linejoin="round" stroke="rgb(0%, 0%, 0%)" stroke-opacity="1" stroke-miterlimit="9.2" d="M 122.949219 40.353055 L 130.875 40.353055 C 131.664062 40.353055 132.296875 40.986504 132.296875 41.77245 L 132.296875 49.698384 C 132.296875 50.488241 131.664062 51.12169 130.875 51.12169 L 122.949219 51.12169 C 122.164062 51.12169 121.527344 50.488241 121.527344 49.698384 L 121.527344 41.77245 C 121.527344 40.986504 122.164062 40.353055 122.949219 40.353055 Z M 122.949219 40.353055 " transform="matrix(1, 0, 0, 0.998995, 0, 0)"/>
<path fill-rule="nonzero" fill="rgb(33.724976%, 70.587158%, 91.371155%)" fill-opacity="1" stroke-width="0.601739" stroke-linecap="butt" stroke-linejoin="round" stroke="rgb(0%, 0%, 0%)" stroke-opacity="1" stroke-miterlimit="9.2" d="M 95.433594 32.086935 L 103.363281 32.086935 C 104.148438 32.086935 104.785156 32.724294 104.785156 33.51024 L 104.785156 41.436175 C 104.785156 42.226031 104.148438 42.85948 103.363281 42.85948 L 95.433594 42.85948 C 94.648438 42.85948 94.015625 42.226031 94.015625 41.436175 L 94.015625 33.51024 C 94.015625 32.724294 94.648438 32.086935 95.433594 32.086935 Z M 95.433594 32.086935 " transform="matrix(1, 0, 0, 0.998995, 0, 0)"/>
<path fill-rule="nonzero" fill="rgb(33.724976%, 70.587158%, 91.371155%)" fill-opacity="1" stroke-width="0.601739" stroke-linecap="butt" stroke-linejoin="round" stroke="rgb(0%, 0%, 0%)" stroke-opacity="1" stroke-miterlimit="9.2" d="M 95.433594 48.615265 L 103.363281 48.615265 C 104.148438 48.615265 104.785156 49.248714 104.785156 50.03466 L 104.785156 57.964504 C 104.785156 58.75045 104.148438 59.3839 103.363281 59.3839 L 95.433594 59.3839 C 94.648438 59.3839 94.015625 58.75045 94.015625 57.964504 L 94.015625 50.03466 C 94.015625 49.248714 94.648438 48.615265 95.433594 48.615265 Z M 95.433594 48.615265 " transform="matrix(1, 0, 0, 0.998995, 0, 0)"/>
<path fill-rule="nonzero" fill="rgb(33.724976%, 70.587158%, 91.371155%)" fill-opacity="1" stroke-width="0.601739" stroke-linecap="butt" stroke-linejoin="round" stroke="rgb(0%, 0%, 0%)" stroke-opacity="1" stroke-miterlimit="9.2" d="M 150.464844 32.086935 L 158.390625 32.086935 C 159.179688 32.086935 159.8125 32.724294 159.8125 33.51024 L 159.8125 41.436175 C 159.8125 42.226031 159.179688 42.85948 158.390625 42.85948 L 150.464844 42.85948 C 149.675781 42.85948 149.042969 42.226031 149.042969 41.436175 L 149.042969 33.51024 C 149.042969 32.724294 149.675781 32.086935 150.464844 32.086935 Z M 150.464844 32.086935 " transform="matrix(1, 0, 0, 0.998995, 0, 0)"/>
<path fill-rule="nonzero" fill="rgb(33.724976%, 70.587158%, 91.371155%)" fill-opacity="1" stroke-width="0.601739" stroke-linecap="butt" stroke-linejoin="round" stroke="rgb(0%, 0%, 0%)" stroke-opacity="1" stroke-miterlimit="9.2" d="M 150.464844 48.615265 L 158.390625 48.615265 C 159.179688 48.615265 159.8125 49.248714 159.8125 50.03466 L 159.8125 57.964504 C 159.8125 58.75045 159.179688 59.3839 158.390625 59.3839 L 150.464844 59.3839 C 149.675781 59.3839 149.042969 58.75045 149.042969 57.964504 L 149.042969 50.03466 C 149.042969 49.248714 149.675781 48.615265 150.464844 48.615265 Z M 150.464844 48.615265 " transform="matrix(1, 0, 0, 0.998995, 0, 0)"/>
<path fill="none" stroke-width="0.602686" stroke-linecap="butt" stroke-linejoin="round" stroke="rgb(0%, 0%, 0%)" stroke-opacity="1" stroke-miterlimit="9.2" d="M 104.785156 37.475163 L 120.066406 43.160564 " transform="matrix(1, 0, 0, 0.998995, 0, 0)"/>
<path fill-rule="evenodd" fill="rgb(0%, 0%, 0%)" fill-opacity="1" stroke-width="0.376572" stroke-linecap="butt" stroke-linejoin="miter" stroke="rgb(0%, 0%, 0%)" stroke-opacity="1" stroke-miterlimit="4" d="M 120.13467 -1.32841 C 119.290645 -1.045671 118.160996 -0.480708 117.594459 0.0858994 C 117.594459 0.0858994 117.595725 -1.044614 118.158195 -1.328175 C 117.59572 -1.611588 117.593555 -2.740824 117.593555 -2.740824 C 118.160103 -2.173483 119.287208 -1.611368 120.13467 -1.32841 Z M 120.13467 -1.32841 " transform="matrix(1, 0.371677, -0.372051, 0.998995, 0, 0)"/>
<path fill="none" stroke-width="0.602686" stroke-linecap="butt" stroke-linejoin="round" stroke="rgb(0%, 0%, 0%)" stroke-opacity="1" stroke-miterlimit="9.2" d="M 104.785156 53.999582 L 120.074219 48.314181 " transform="matrix(1, 0, 0, 0.998995, 0, 0)"/>
<path fill-rule="evenodd" fill="rgb(0%, 0%, 0%)" fill-opacity="1" stroke-width="0.3766" stroke-linecap="butt" stroke-linejoin="miter" stroke="rgb(0%, 0%, 0%)" stroke-opacity="1" stroke-miterlimit="4" d="M 90.273768 81.669317 C 89.426299 81.952463 88.294514 82.516999 87.729314 83.081057 C 87.729314 83.081057 87.731256 81.951738 88.297149 81.669469 C 87.729873 81.388157 87.731816 80.258838 87.731816 80.258838 C 88.296351 80.820664 89.426193 81.385447 90.273768 81.669317 Z M 90.273768 81.669317 " transform="matrix(1, -0.371454, 0.371827, 0.998995, 0, 0)"/>
<path fill="none" stroke-width="0.602686" stroke-linecap="butt" stroke-linejoin="round" stroke="rgb(0%, 0%, 0%)" stroke-opacity="1" stroke-miterlimit="9.2" d="M 132.277344 43.160564 L 147.597656 37.404779 " transform="matrix(1, 0, 0, 0.998995, 0, 0)"/>
<path fill-rule="evenodd" fill="rgb(0%, 0%, 0%)" fill-opacity="1" stroke-width="0.376134" stroke-linecap="butt" stroke-linejoin="miter" stroke="rgb(0%, 0%, 0%)" stroke-opacity="1" stroke-miterlimit="4" d="M 117.599667 81.364238 C 116.755738 81.645515 115.625628 82.21032 115.062687 82.773094 C 115.062687 82.773094 115.063652 81.647324 115.627639 81.362566 C 115.061998 81.079727 115.062963 79.953958 115.062963 79.953958 C 115.628363 80.518239 116.75622 81.08263 117.599667 81.364238 Z M 117.599667 81.364238 " transform="matrix(1, -0.375224, 0.375601, 0.998995, 0, 0)"/>
<path fill="none" stroke-width="0.602686" stroke-linecap="butt" stroke-linejoin="round" stroke="rgb(0%, 0%, 0%)" stroke-opacity="1" stroke-miterlimit="9.2" d="M 132.132812 48.314181 L 147.570312 53.999582 " transform="matrix(1, 0, 0, 0.998995, 0, 0)"/>
<path fill-rule="evenodd" fill="rgb(0%, 0%, 0%)" fill-opacity="1" stroke-width="0.377037" stroke-linecap="butt" stroke-linejoin="miter" stroke="rgb(0%, 0%, 0%)" stroke-opacity="1" stroke-miterlimit="4" d="M 148.02451 -0.304699 C 147.176332 -0.0197204 146.044676 0.54561 145.478991 1.109756 C 145.478991 1.109756 145.480593 -0.0208764 146.044701 -0.302908 C 145.479041 -0.587281 145.480643 -1.717913 145.480643 -1.717913 C 146.044726 -1.151426 147.178218 -0.587391 148.02451 -0.304699 Z M 148.02451 -0.304699 " transform="matrix(1, 0.36789, -0.36826, 0.998995, 0, 0)"/>
<path fill="none" stroke-width="0.602686" stroke-linecap="butt" stroke-linejoin="round" stroke="rgb(0%, 0%, 0%)" stroke-opacity="1" stroke-miterlimit="9.2" d="M 159.8125 37.475163 L 175.089844 43.160564 " transform="matrix(1, 0, 0, 0.998995, 0, 0)"/>
<path fill-rule="evenodd" fill="rgb(0%, 0%, 0%)" fill-opacity="1" stroke-width="0.376555" stroke-linecap="butt" stroke-linejoin="miter" stroke="rgb(0%, 0%, 0%)" stroke-opacity="1" stroke-miterlimit="4" d="M 168.457657 -19.330629 C 167.613705 -19.047799 166.484178 -18.482723 165.917737 -17.916072 C 165.917737 -17.916072 165.918864 -19.046534 166.481273 -19.330151 C 165.918789 -19.613482 165.916485 -20.742666 165.916485 -20.742666 C 166.481799 -20.178855 167.610199 -19.61347 168.457657 -19.330629 Z M 168.457657 -19.330629 " transform="matrix(1, 0.371817, -0.372191, 0.998995, 0, 0)"/>
<path fill="none" stroke-width="0.602686" stroke-linecap="butt" stroke-linejoin="round" stroke="rgb(0%, 0%, 0%)" stroke-opacity="1" stroke-miterlimit="9.2" d="M 159.8125 53.999582 L 175.113281 48.314181 " transform="matrix(1, 0, 0, 0.998995, 0, 0)"/>
<path fill-rule="evenodd" fill="rgb(0%, 0%, 0%)" fill-opacity="1" stroke-width="0.376624" stroke-linecap="butt" stroke-linejoin="miter" stroke="rgb(0%, 0%, 0%)" stroke-opacity="1" stroke-miterlimit="4" d="M 138.650426 99.629618 C 137.802952 99.912929 136.674624 100.478974 136.109484 101.043167 C 136.109484 101.043167 136.107799 99.912499 136.673679 99.630114 C 136.109751 99.350158 136.108066 98.21949 136.108066 98.21949 C 136.676167 98.78253 137.80618 99.347153 138.650426 99.629618 Z M 138.650426 99.629618 " transform="matrix(1, -0.371256, 0.37163, 0.998995, 0, 0)"/>
<path fill-rule="nonzero" fill="rgb(89.802551%, 89.802551%, 89.802551%)" fill-opacity="1" stroke-width="0.601736" stroke-linecap="butt" stroke-linejoin="round" stroke="rgb(0%, 0%, 0%)" stroke-opacity="1" stroke-miterlimit="9.2" d="M 37.400869 -57.609375 L 53.698498 -57.609375 C 56.850103 -57.609375 59.3839 -55.074219 59.3839 -51.925781 L 59.3839 -11.671875 C 59.3839 -8.523438 56.850103 -5.988281 53.698498 -5.988281 L 37.400869 -5.988281 C 34.253174 -5.988281 31.715468 -8.523438 31.715468 -11.671875 L 31.715468 -51.925781 C 31.715468 -55.074219 34.253174 -57.609375 37.400869 -57.609375 Z M 37.400869 -57.609375 " transform="matrix(0, 0.998995, -1, 0, 0, 0)"/>
<g fill="rgb(0%, 0%, 0%)" fill-opacity="1">
<use xlink:href="#glyph-1-18" x="16.863115" y="40.148009"/>
<use xlink:href="#glyph-1-1" x="22.214506" y="40.148009"/>
<use xlink:href="#glyph-1-14" x="26.226091" y="40.148009"/>
<use xlink:href="#glyph-1-19" x="30.237675" y="40.148009"/>
<use xlink:href="#glyph-1-13" x="33.359973" y="40.148009"/>
<use xlink:href="#glyph-1-20" x="35.589066" y="40.148009"/>
<use xlink:href="#glyph-1-21" x="38.260844" y="40.148009"/>
<use xlink:href="#glyph-1-16" x="42.272429" y="40.148009"/>
<use xlink:href="#glyph-1-13" x="45.833493" y="40.148009"/>
</g>
<g fill="rgb(0%, 0%, 0%)" fill-opacity="1">
<use xlink:href="#glyph-1-8" x="17.983535" y="47.361604"/>
<use xlink:href="#glyph-1-14" x="20.212628" y="47.361604"/>
<use xlink:href="#glyph-1-19" x="24.224212" y="47.361604"/>
<use xlink:href="#glyph-1-13" x="27.34651" y="47.361604"/>
<use xlink:href="#glyph-1-12" x="29.575603" y="47.361604"/>
<use xlink:href="#glyph-1-14" x="33.136668" y="47.361604"/>
<use xlink:href="#glyph-1-16" x="37.148253" y="47.361604"/>
<use xlink:href="#glyph-1-10" x="40.709317" y="47.361604"/>
<use xlink:href="#glyph-1-22" x="44.270382" y="47.361604"/>
</g>
<g fill="rgb(0%, 0%, 0%)" fill-opacity="1">
<use xlink:href="#glyph-1-19" x="12.079766" y="54.575198"/>
<use xlink:href="#glyph-1-2" x="15.202064" y="54.575198"/>
<use xlink:href="#glyph-1-10" x="19.213648" y="54.575198"/>
<use xlink:href="#glyph-1-16" x="22.774713" y="54.575198"/>
<use xlink:href="#glyph-1-8" x="26.335778" y="54.575198"/>
<use xlink:href="#glyph-1-7" x="28.564871" y="54.575198"/>
<use xlink:href="#glyph-1-8" x="31.236649" y="54.575198"/>
<use xlink:href="#glyph-1-16" x="33.465742" y="54.575198"/>
<use xlink:href="#glyph-1-6" x="37.026807" y="54.575198"/>
<use xlink:href="#glyph-1-2" x="39.032599" y="54.575198"/>
<use xlink:href="#glyph-1-3" x="43.044184" y="54.575198"/>
<use xlink:href="#glyph-1-12" x="45.273277" y="54.575198"/>
<use xlink:href="#glyph-1-14" x="48.834342" y="54.575198"/>
</g>
<path fill="none" stroke-width="0.602686" stroke-linecap="butt" stroke-linejoin="round" stroke="rgb(0%, 0%, 0%)" stroke-opacity="1" stroke-miterlimit="9.2" d="M 57.609375 45.737372 L 86.789062 45.737372 " transform="matrix(1, 0, 0, 0.998995, 0, 0)"/>
<path fill-rule="evenodd" fill="rgb(0%, 0%, 0%)" fill-opacity="1" stroke-width="0.40179" stroke-linecap="butt" stroke-linejoin="miter" stroke="rgb(0%, 0%, 0%)" stroke-opacity="1" stroke-miterlimit="4" d="M 87.390625 45.737372 C 86.488281 46.038456 85.28125 46.640624 84.679688 47.242792 C 84.679688 47.242792 84.679688 46.038456 85.28125 45.737372 C 84.679688 45.436288 84.679688 44.228043 84.679688 44.228043 C 85.28125 44.834121 86.488281 45.436288 87.390625 45.737372 Z M 87.390625 45.737372 " transform="matrix(1, 0, 0, 0.998995, 0, 0)"/>
</svg>
